<?xml version="1.0" encoding="utf-8"?>
<!-- Generator: Adobe Illustrator 16.0.4, SVG Export Plug-In . SVG Version: 6.00 Build 0)  -->
<!DOCTYPE svg PUBLIC "-//W3C//DTD SVG 1.1//EN" "http://www.w3.org/Graphics/SVG/1.1/DTD/svg11.dtd">
<svg version="1.1" id="Layer_1" xmlns="http://www.w3.org/2000/svg" xmlns:xlink="http://www.w3.org/1999/xlink" x="0px" y="0px"
	 width="180px" height="80px" viewBox="0 0 180 80" enable-background="new 0 0 180 80" xml:space="preserve">
<g>
	<g>
		<path fill="#F99D1C" d="M17.974,68.334c-1.629-6.344-1.64-13.144-1.444-19.647c0.167-5.526,0.16-14.641,4.358-18.904
			c-0.022,0.023-0.35-0.255-0.439-0.294c0.163,0.072,0.714,0.886,1.032,1.487c1.36,2.569,1.683,6.027,2.006,8.87
			c0.691,6.086,0.623,12.23,0.613,18.346c3.333,0,6.667,0,10,0c-0.088-5.514,1.957-11.144,2.637-16.64
			c0.364-2.942,0.809-5.779,1.58-8.644c0.651-2.423-3.376-1.122-1.433-0.013c1.018,0.581,2.009,1.327,2.918,2.062
			c8.361,6.758,8.502,19.032,6.9,28.717c-1.043,6.306,8.592,9.009,9.643,2.658c2.64-15.955,0.458-31.657-13.505-41.477
			c-5.451-3.834-11.536-2.392-13.744,4.144c-1.618,4.79-1.943,9.78-2.649,14.752c-0.693,4.888-2.427,9.447-2.347,14.441
			c0.103,6.441,9.99,6.453,10,0c0.016-9.922,1.894-42.542-15.875-38.052C9.559,22.33,7.945,34.452,7.047,41.686
			c-1.176,9.467-1.103,20.016,1.285,29.307C9.935,77.234,19.58,74.584,17.974,68.334L17.974,68.334z"/>
	</g>
</g>
<g>
	<g>
		<path fill="#EA1463" d="M87.732,39.176c-3.998-5.936-11.059-7.218-17.056-3.317c-6.436,4.186-9.349,13.757-5.724,20.699
			c3.487,6.677,12.017,8.995,18.66,5.971c6.9-3.142,6.06-14.729,6.047-20.829c-0.013-6.451-9.934-6.446-10,0
			c-0.081,7.883-1.007,15.675,2.676,22.959c2.911,5.756,11.537,0.691,8.635-5.047c-2.697-5.334-1.37-12.164-1.311-17.912
			c-3.333,0-6.667,0-10,0c0.007,3.513,0.127,7.087-0.597,10.541c-0.168,0.803-0.355,1.311-0.755,2.008
			c0.304-0.53,0.288-0.344-0.193-0.305c-1.35,0.111-2.773-0.373-3.784-1.262c-3.527-3.098,2.571-11.717,4.765-8.459
			C82.678,49.54,91.346,44.541,87.732,39.176L87.732,39.176z"/>
	</g>
</g>
<g>
	<g>
		<path fill="#ED1C24" d="M75.723,30.243c3.873-2.73,8.212-4.904,11.228-8.668c1.702-2.125,2.084-4.986,0-7.071
			c-1.768-1.768-5.365-2.13-7.071,0c-2.503,3.125-5.986,4.837-9.203,7.105c-2.223,1.567-3.26,4.338-1.794,6.841
			C70.171,30.649,73.491,31.816,75.723,30.243L75.723,30.243z"/>
	</g>
</g>
<g>
	<g>
		<g>
			<path fill="#535EAA" d="M97.101,35.964c0.839,9.197-0.577,18.418,0.497,27.604c0.74,6.325,10.748,6.397,10,0
				c-1.074-9.186,0.342-18.406-0.497-27.604C106.52,29.597,96.515,29.54,97.101,35.964L97.101,35.964z"/>
		</g>
	</g>
	<g>
		<g>
			<path fill="#535EAA" d="M98.033,41.355c4.105,6.225,9.99,6.775,15.079,1.344c0.764-0.814,1.505-1.63,2.328-2.387
				c-0.57,0.525-2.197-0.432-0.425,1.012c2.899,2.363,5.607,3.278,9.343,2.688c6.355-1.006,3.648-10.641-2.658-9.643
				c1.239-0.196,0.429-0.081-0.246-0.63c-0.742-0.605-1.502-1.186-2.278-1.747c-1.8-1.3-4.559-1.795-6.692-1.208
				c-2.083,0.573-3.823,2.103-5.3,3.605c-0.585,0.596-1.134,1.23-1.705,1.84c-1.52,1.622,2.411,1.932,1.189,0.08
				C103.135,30.952,94.471,35.955,98.033,41.355L98.033,41.355z"/>
		</g>
	</g>
</g>
<g>
	<g>
		<path fill="#27AAE1" d="M129.24,8c0.412,21.153-2.159,42.357,0.249,63.455c0.723,6.33,10.73,6.401,10,0
			C137.081,50.357,139.652,29.153,139.24,8C139.114,1.56,129.114,1.548,129.24,8L129.24,8z"/>
	</g>
</g>
<g>
	<g>
		<path fill="#F05023" d="M158.491,33.294c-6.961-2.882-15.027,1.5-17.466,8.378c-2.68,7.557,1.532,15.319,6.936,20.506
			c5.267,5.055,13.194,5.207,16.371-2.161c1.579-3.661,1.621-7.259,1.353-11.166c-0.122-1.772-0.898-7.12-0.004-7.917
			c-2.845-1.179-5.69-2.357-8.535-3.536c0.205,7.245-1.642,17.25,4.705,22.537c4.916,4.096,12.031-2.939,7.07-7.071
			c-3.532-2.942-1.66-11.391-1.775-15.465c-0.127-4.501-5.283-6.43-8.535-3.536c-3.377,3.005-3.336,8.009-3.12,12.16
			c0.11,2.132,0.321,4.255,0.374,6.391c0.026,1.044-0.073,1.731-0.332,2.739c-0.462,1.795-1.052,1.034,0.678,0.867
			c-1.745,0.169-5.24-6.004-5.821-7.789c-1.214-3.73,1.939-6.745,5.444-5.294c2.522,1.045,5.495-1.109,6.15-3.492
			C162.774,36.57,161.008,34.335,158.491,33.294L158.491,33.294z"/>
	</g>
</g>
</svg>
